<svg width="30" height="24" viewBox="0 0 30 24" fill="none" xmlns="http://www.w3.org/2000/svg">
<g clip-path="url(#clip0_59_297)">
<path d="M9.51479 2.54318L12.3931 5.15528L6.56896 11.4252C8.49882 11.6341 10.4292 11.7386 12.4266 11.7386C13.3745 11.7386 14.2549 11.7041 15.0678 11.6341C14.7291 10.4495 14.5601 9.2304 14.5601 7.94185C14.5601 2.92603 17.5734 0 21.6702 0C25.4624 0 27.765 2.57764 27.765 6.02598C27.765 9.47432 25.6655 12.4009 21.23 14.1423C22.4491 15.1525 24.1418 15.7448 26.2753 15.7448C27.2913 15.7448 28.4423 15.7098 29.6273 15.4658L30 19.2281C28.5438 19.5415 27.3253 19.5415 26.0722 19.5415C21.9074 19.5415 18.7925 17.8696 16.8621 15.2919C15.474 15.5008 13.9503 15.6053 12.291 15.6053C10.3952 15.6053 8.49882 15.4314 6.67051 15.2225L12.3931 21.3529L9.51479 24L0 13.2716L9.51479 2.54318ZM19.0631 10.8684C22.3135 9.82325 23.7016 7.97738 23.7016 6.09598C23.7016 4.56351 22.8212 3.6578 21.3991 3.6578C19.7399 3.6578 18.6224 5.25974 18.6224 7.83792C18.6224 8.91755 18.7579 9.92771 19.0625 10.8684H19.0631Z" fill="#D64E34"/>
</g>
<defs>
<clipPath id="clip0_59_297">
<rect width="30" height="24" fill="white"/>
</clipPath>
</defs>
</svg>
