<svg width="866" height="1847" viewBox="0 0 866 1847" fill="none" xmlns="http://www.w3.org/2000/svg">
<path d="M122.11 739.418C189.749 642.82 272.529 576.723 363.485 532.432C372.863 433.431 404.867 335.6 469.124 243.831C630.351 13.5744 876.875 -62.7007 1143.38 56.7305L2117.14 493.189L1962.27 714.36L1098.12 325.35C879.085 227.176 739.024 278.545 653.347 400.904C638.69 421.836 627.522 443.153 618.849 465.864C843.214 450.223 1073.86 528.105 1228.33 636.267C1464.89 801.906 1525.69 1044.96 1387.02 1243.01C1248.34 1441.06 1011.62 1469.69 763.819 1296.18C607.731 1186.88 460.183 1002.62 397.364 797.868C366.294 821.699 338.605 850.403 314.937 884.203C172.881 1087.08 278.132 1278.38 456.756 1403.45C622.495 1519.5 837.665 1557.26 1111.46 1573.78L1249.99 1581.66L1224.23 1846.85L1021.56 1829.45C722.344 1804.7 487.323 1736.15 300.664 1605.45C-35.6399 1369.97 -80.8227 1029.24 122.11 739.418ZM1082.89 845.724C955.782 756.722 779.074 695.115 615.701 712.698C659.914 851.635 770.952 989.873 912.538 1089.01C1031.64 1172.41 1140.77 1179.75 1192.63 1105.68C1244.5 1031.61 1205.2 931.365 1082.89 845.724Z" fill="#EDEDEF"/>
</svg>
