<svg width="544" height="699" viewBox="0 0 544 699" fill="none" xmlns="http://www.w3.org/2000/svg">
<path d="M-186.774 493.583C-271.605 311.662 -204.735 120.189 -23.0427 35.4646C158.649 -49.2599 348.31 22.591 433.14 204.512C478.026 300.768 484.423 420.464 429.906 519.379L543.104 568.105L495.107 671.033L355.875 609.069C331.476 629.382 303.384 647.89 269.832 663.536C88.1396 748.26 -102.325 674.683 -186.774 493.583ZM222.076 561.123C226.162 559.218 230.631 557.013 234.342 554.3L192.361 535.258C139.345 511.312 105.633 472.312 87.7566 433.976C43.6299 339.346 79.7825 245.707 175.544 201.053C203.378 188.073 234.589 180.255 270.396 184.407C199.843 110.037 111.95 96.0947 25.1968 136.548C-92.6544 191.503 -131.395 311.837 -71.673 439.91C-11.9514 567.983 105.857 615.317 222.076 561.123ZM322.93 472.166C354.186 423.815 363.678 367.887 343.514 324.645C323.35 281.403 283.75 260.933 239.557 281.541C195.364 302.148 182.415 345.929 202.191 388.338C214.363 414.442 235.234 434.603 278.714 453.062L322.93 472.166Z" fill="#EDEDEF"/>
</svg>
