<svg width="1502" height="159" viewBox="0 0 1502 159" fill="none" xmlns="http://www.w3.org/2000/svg">
<path d="M67 117C87.6388 117 104.458 106.448 105 89H54V66H131V76C131 113.263 104.647 139 67 139C29.3534 139 0 109.53 0 69C0 28.4698 27.5379 0 67 0C97.408 0 120.934 16.1026 128 41L102 47C97.1115 31.1856 85.281 22 67 22C41.4726 22 25 40.6462 25 69C25 97.3538 40.7496 117 67 117Z" fill="white"/>
<path d="M211 0C251.517 0 282 28.4619 282 69C282 109.538 251.517 139 211 139C170.483 139 144 109.349 144 69C144 28.6513 170.483 0 211 0ZM211 22C185.08 22 169 40.6462 169 69C169 97.3538 185.08 117 211 117C236.92 117 256 97.3538 256 69C256 40.6462 236.92 22 211 22Z" fill="white"/>
<path d="M506 0C546.517 0 574 28.4619 574 69C574 109.538 546.517 139 506 139C465.483 139 436 109.349 436 69C436 28.6513 465.475 0 506 0ZM506 22C480.08 22 461 40.6462 461 69C461 97.3538 480.08 117 506 117C531.92 117 548 97.3538 548 69C548 40.6462 531.92 22 506 22Z" fill="white"/>
<path d="M590 2H615V112H676V135H590V2Z" fill="white"/>
<path d="M795 41C792.311 28.6414 782.826 22 769 22C753.919 22 747 27.4565 747 38C747 50.5401 759.202 53.3698 775 57C795.825 61.5457 820 68.9186 820 98C820 123.814 798.976 139 769 139C739.024 139 721.64 125.907 715 101L740 95C743.772 111.904 753.568 117 769 117C782.998 117 795 111.266 795 98C795 84.7338 781.619 82.2672 766 79C744.995 74.2728 721 70.989 721 41C721 17.7348 741.355 0 769 0C796.645 0 814.077 11.0979 820 34L795 41Z" fill="white"/>
<path d="M904 0C934.496 0 958.326 16.1891 965 44L939 50C934.488 32.1881 923.302 22 904 22C877.476 22 862 43.7382 862 69C862 94.2618 877.123 117 904 117C923.662 117 934.668 106.449 939 89L965 95C956.697 123.718 934.668 139 904 139C861.778 139 837 108.254 837 69C837 29.746 863.579 0 904 0Z" fill="white"/>
<path d="M982 2H1007V52H1071V2H1097V135H1071V74H1007V135H982V2Z" fill="white"/>
<path d="M1180 0C1220.52 0 1248 28.4619 1248 69C1248 109.538 1220.52 139 1180 139C1139.48 139 1110 109.349 1110 69C1110 28.6513 1139.48 0 1180 0ZM1180 22C1154.08 22 1135 40.6462 1135 69C1135 97.3538 1154.08 117 1180 117C1205.92 117 1222 97.3538 1222 69C1222 40.6462 1205.92 22 1180 22Z" fill="white"/>
<path d="M1330 0C1370.52 0 1398 28.4619 1398 69C1398 109.538 1370.52 139 1330 139C1289.48 139 1260 109.349 1260 69C1260 28.6513 1289.48 0 1330 0ZM1330 22C1304.08 22 1285 40.6462 1285 69C1285 97.3538 1304.08 117 1330 117C1355.92 117 1372 97.3538 1372 69C1372 40.6462 1355.91 22 1330 22Z" fill="white"/>
<path d="M1415 2H1440V112H1501V135H1415V2Z" fill="white"/>
<path d="M413 107C420.508 98.2013 423 90.4402 423 82C423 61.1762 408.917 47 388 47H384C363.075 47 349 61.1762 349 82C349 90.4402 351.492 98.2013 359 107L365 114C364.107 114.179 362.901 114 362 114C336.603 114 320 97.3678 320 69C320 40.6322 336.246 22 362 22C369.267 22 375.216 22.1165 381 25C387.188 28.0862 393.032 34.664 397 41L417 25C404.965 9.37435 384.703 0 362 0C322.301 0 295 28.9734 295 69C295 109.027 322.301 139 362 139C369.33 139 374.921 137.613 381 136L404 158L420 142L404 126L400 123L407 114L413 107ZM381 101C374.742 94.0016 375 87.7437 375 82C375 73.0766 379.203 66 388 66C396.805 66 404 73.0766 404 82C404 87.7437 400.266 94.0016 394 101L388 107L381 101Z" fill="white"/>
</svg>
