<svg width="384" height="42" viewBox="0 0 384 42" fill="none" xmlns="http://www.w3.org/2000/svg">
<g clip-path="url(#clip0_317_3072)">
<path d="M17.2098 30.9085C22.4863 30.9085 26.9053 28.0201 27.0439 23.5119H13.9317V17.7589H33.6V20.2244C33.6 29.8526 26.8344 36.6615 17.2098 36.6615C7.58507 36.6615 0 29.053 0 18.5807C0 8.10849 7.12091 0.5 17.2098 0.5C24.9838 0.5 30.9741 4.75106 32.7805 11.1841L26.2244 12.8278C24.9746 8.74164 21.8835 6.25296 17.2098 6.25296C10.6835 6.25296 6.5561 11.2547 6.5561 18.5807C6.5561 25.9068 10.4986 30.9085 17.2098 30.9085Z" fill="white"/>
<path d="M54.1558 0.5C64.5143 0.5 72.2512 8.10645 72.2512 18.5807C72.2512 29.055 64.5143 36.6615 54.1558 36.6615C43.7973 36.6615 36.8828 29.0061 36.8828 18.5807C36.8828 8.15539 43.7973 0.5 54.1558 0.5ZM54.1558 6.25296C47.529 6.25296 43.463 11.2547 43.463 18.5807C43.463 25.9068 47.529 30.9085 54.1558 30.9085C60.7825 30.9085 65.6711 25.9068 65.6711 18.5807C65.6711 11.2547 60.7825 6.25296 54.1558 6.25296Z" fill="white"/>
<path d="M129.76 0.5C140.118 0.5 147.032 8.10645 147.032 18.5807C147.032 29.055 140.118 36.6615 129.76 36.6615C119.401 36.6615 111.664 29.0061 111.664 18.5807C111.664 8.15539 119.399 0.5 129.76 0.5ZM129.76 6.25296C123.133 6.25296 118.244 11.2547 118.244 18.5807C118.244 25.9068 123.133 30.9085 129.76 30.9085C136.386 30.9085 140.452 25.9068 140.452 18.5807C140.452 11.2547 136.386 6.25296 129.76 6.25296Z" fill="white"/>
<path d="M151.074 1.26562H157.661V29.9147H173.306V35.6445H151.074V1.26562Z" fill="white"/>
<path d="M203.385 11.1841C202.697 7.99084 200.366 6.25296 196.832 6.25296C192.976 6.25296 191.098 7.63798 191.098 10.3622C191.098 13.6024 194.431 14.3553 198.47 15.2933C203.794 16.4679 209.938 18.4633 209.938 25.9774C209.938 32.6473 204.495 36.6615 196.832 36.6615C189.168 36.6615 184.604 33.2347 182.906 26.7993L189.459 25.1556C190.424 29.5233 192.886 30.9085 196.832 30.9085C200.41 30.9085 203.385 29.4051 203.385 25.9774C203.385 22.5497 200.006 21.8905 196.012 21.0463C190.642 19.8249 184.545 18.9327 184.545 11.1841C184.545 5.1728 189.764 0.5 196.832 0.5C203.899 0.5 208.423 3.62289 209.938 9.54037L203.385 11.1841Z" fill="white"/>
<path d="M231.473 0.5C239.269 0.5 245.366 4.82012 247.073 12.0059L240.504 13.6496C239.351 9.04737 236.407 6.25296 231.473 6.25296C224.691 6.25296 220.799 12.0536 220.799 18.5807C220.799 25.1079 224.601 30.9085 231.473 30.9085C236.499 30.9085 239.397 28.0203 240.504 23.5119L247.073 25.1556C244.95 32.5759 239.313 36.6615 231.473 36.6615C220.678 36.6615 214.23 28.7233 214.23 18.5807C214.23 8.43824 221.139 0.5 231.473 0.5Z" fill="white"/>
<path d="M251.117 1.26562H257.686V14.3623H274.107V1.26562H280.675V35.6445H274.107V20.0922H257.686V35.6445H251.117V1.26562Z" fill="white"/>
<path d="M302.053 0.5C312.411 0.5 319.325 8.10645 319.325 18.5807C319.325 29.055 312.411 36.6615 302.053 36.6615C291.694 36.6615 283.957 29.0061 283.957 18.5807C283.957 8.15539 291.694 0.5 302.053 0.5ZM302.053 6.25296C295.426 6.25296 290.537 11.2547 290.537 18.5807C290.537 25.9068 295.426 30.9085 302.053 30.9085C308.679 30.9085 312.745 25.9068 312.745 18.5807C312.745 11.2547 308.679 6.25296 302.053 6.25296Z" fill="white"/>
<path d="M340.455 0.5C350.813 0.5 357.728 8.10645 357.728 18.5807C357.728 29.055 350.813 36.6615 340.455 36.6615C330.096 36.6615 322.359 29.0061 322.359 18.5807C322.359 8.15539 330.096 0.5 340.455 0.5ZM340.455 6.25296C333.828 6.25296 328.94 11.2547 328.94 18.5807C328.94 25.9068 333.828 30.9085 340.455 30.9085C347.082 30.9085 351.148 25.9068 351.148 18.5807C351.148 11.2547 347.08 6.25296 340.455 6.25296Z" fill="white"/>
<path d="M361.77 1.26562H368.357V29.9147H384.001V35.6445H361.77V1.26562Z" fill="white"/>
<path d="M105.918 28.38C107.838 26.1066 108.381 24.0008 108.381 21.82C108.381 16.4395 104.697 12.8 99.3496 12.8H98.5285C93.1789 12.8 89.497 16.4395 89.497 21.82C89.497 24.0008 90.0406 26.1066 91.9601 28.38L93.6022 30.02C93.3739 30.0663 93.0114 30.02 92.7812 30.02C86.2882 30.02 82.1075 25.8697 82.1075 18.54C82.1075 11.2103 86.1969 6.24 92.7812 6.24C94.6391 6.24 96.2286 6.31495 97.7075 7.06C99.2895 7.85741 100.798 9.5229 101.813 11.16L106.739 7.06C103.662 3.02262 98.5854 0.5 92.7812 0.5C82.6318 0.5 75.5391 8.19788 75.5391 18.54C75.5391 28.8821 82.6318 36.58 92.7812 36.58C94.655 36.58 96.1532 36.1768 97.7075 35.76L103.455 41.5L107.56 37.4L103.455 33.3L102.634 32.48L104.276 30.02L105.918 28.38ZM97.7075 26.74C96.1076 24.9317 96.0654 23.3041 96.0654 21.82C96.0654 19.5144 97.1006 17.72 99.3496 17.72C101.601 17.72 103.455 19.5144 103.455 21.82C103.455 23.3041 102.594 24.9317 100.992 26.74L99.3496 28.38L97.7075 26.74Z" fill="white"/>
</g>
<defs>
<clipPath id="clip0_317_3072">
<rect width="384" height="41" fill="white" transform="translate(0 0.5)"/>
</clipPath>
</defs>
</svg>
