<svg width="384" height="42" viewBox="0 0 384 42" fill="none" xmlns="http://www.w3.org/2000/svg">
<g clip-path="url(#clip0_534_16653)">
<path d="M17 30.5C22.2765 30.5 26.8614 28.0082 27 23.5H13V17.5H33V19.5C33 29.1281 26.6247 36.5 17 36.5C7.37531 36.5 0 28.9723 0 18.5C0 8.02775 6.91116 0.5 17 0.5C24.7741 0.5 30.1936 4.06699 32 10.5L26 12.5C24.7502 8.41386 21.6737 5.5 17 5.5C10.4737 5.5 6 11.1739 6 18.5C6 25.8261 10.2888 30.5 17 30.5Z" fill="#D64E34"/>
<path d="M53 0.5C63.3585 0.5 71 8.02571 71 18.5C71 28.9743 63.3585 36.5 53 36.5C42.6415 36.5 36 28.9254 36 18.5C36 8.07464 42.6415 0.5 53 0.5ZM53 5.5C46.3732 5.5 42 11.1739 42 18.5C42 25.8261 46.3732 30.5 53 30.5C59.6268 30.5 64 25.8261 64 18.5C64 11.1739 59.6268 5.5 53 5.5Z" fill="#D64E34"/>
<path d="M129 0.5C139.359 0.5 146 8.02571 146 18.5C146 28.9743 139.359 36.5 129 36.5C118.641 36.5 111 28.9254 111 18.5C111 8.07464 118.639 0.5 129 0.5ZM129 5.5C122.373 5.5 117 11.1739 117 18.5C117 25.8261 122.373 30.5 129 30.5C135.627 30.5 139 25.8261 139 18.5C139 11.1739 135.627 5.5 129 5.5Z" fill="#D64E34"/>
<path d="M151 0.5H157V28.5H173V34.5H151V0.5Z" fill="#D64E34"/>
<path d="M202 10.5C201.313 7.30676 198.535 5.5 195 5.5C191.144 5.5 190 6.77576 190 9.5C190 12.7401 192.961 13.562 197 14.5C202.324 15.6745 209 17.9859 209 25.5C209 32.1699 202.664 36.5 195 36.5C187.336 36.5 183.698 32.9354 182 26.5L188 24.5C188.964 28.8678 191.055 30.5 195 30.5C198.579 30.5 202 28.9277 202 25.5C202 22.0723 198.993 21.3442 195 20.5C189.63 19.2786 183 18.2486 183 10.5C183 4.48872 187.932 0.5 195 0.5C202.068 0.5 207.486 3.58252 209 9.5L202 10.5Z" fill="#D64E34"/>
<path d="M231 0.5C238.796 0.5 244.294 4.31419 246 11.5L240 13.5C238.846 8.89774 235.935 5.5 231 5.5C224.219 5.5 220 11.9728 220 18.5C220 25.0272 224.129 30.5 231 30.5C236.027 30.5 238.893 28.0085 240 23.5L246 24.5C243.877 31.9203 238.841 36.5 231 36.5C220.206 36.5 214 28.6425 214 18.5C214 8.35749 220.666 0.5 231 0.5Z" fill="#D64E34"/>
<path d="M251 0.5H257V13.5H273V0.5H280V34.5H273V18.5H257V34.5H251V0.5Z" fill="#D64E34"/>
<path d="M301 0.5C311.358 0.5 318 8.02571 318 18.5C318 28.9743 311.358 36.5 301 36.5C290.642 36.5 283 28.9254 283 18.5C283 8.07464 290.642 0.5 301 0.5ZM301 5.5C294.373 5.5 289 11.1739 289 18.5C289 25.8261 294.373 30.5 301 30.5C307.627 30.5 311 25.8261 311 18.5C311 11.1739 307.627 5.5 301 5.5Z" fill="#D64E34"/>
<path d="M340 0.5C350.358 0.5 357 8.02571 357 18.5C357 28.9743 350.358 36.5 340 36.5C329.642 36.5 322 28.9254 322 18.5C322 8.07464 329.642 0.5 340 0.5ZM340 5.5C333.373 5.5 328 11.1739 328 18.5C328 25.8261 333.373 30.5 340 30.5C346.627 30.5 350 25.8261 350 18.5C350 11.1739 346.625 5.5 340 5.5Z" fill="#D64E34"/>
<path d="M361 0.5H367V28.5H383V34.5H361V0.5Z" fill="#D64E34"/>
<path d="M105 27.5C106.92 25.2266 107 23.6808 107 21.5C107 16.1195 103.348 12.5 98 12.5H97C91.6504 12.5 88 16.1195 88 21.5C88 23.6808 89.0805 25.2266 91 27.5L93 29.5C92.7717 29.5463 92.2303 29.5 92 29.5C85.507 29.5 81 25.8297 81 18.5C81 11.1703 85.4157 5.5 92 5.5C93.858 5.5 95.5212 5.75495 97 6.5C98.5821 7.29741 99.9857 8.8629 101 10.5L106 6.5C102.923 2.46262 97.8042 0.5 92 0.5C81.8506 0.5 75 8.15788 75 18.5C75 28.8421 81.8506 36.5 92 36.5C93.8739 36.5 95.4457 35.9168 97 35.5L102 41.5L107 36.5L102 32.5V31.5L103 29.5L105 27.5ZM97 26.5C95.4001 24.6917 95 22.9841 95 21.5C95 19.1944 95.751 17.5 98 17.5C100.251 17.5 102 19.1944 102 21.5C102 22.9841 101.602 24.6917 100 26.5L98 27.5L97 26.5Z" fill="#D64E34"/>
</g>
<defs>
<clipPath id="clip0_534_16653">
<rect width="384" height="41" fill="white" transform="translate(0 0.5)"/>
</clipPath>
</defs>
</svg>
