<svg width="820" height="1861" viewBox="0 0 820 1861" fill="none" xmlns="http://www.w3.org/2000/svg">
<g clip-path="url(#clip0_165_11749)">
<g style="mix-blend-mode:multiply">
<path d="M-204.962 1726.72L-169.703 1576.93L-129.338 1586.97C-95.5437 1593.26 -64.5396 1587.27 -45.0659 1564.99C-25.5922 1542.7 -20.3272 1516.83 -9.11704 1456.96L-2.09378 1413.97C-86.507 1406.31 -169.678 1375.11 -246.667 1307.85C-323.655 1240.58 -367.26 1158.02 -381.744 1070.32C-467.552 1070.4 -548.772 1043.9 -618.683 982.825C-766.599 853.593 -774.776 693.361 -649.955 550.493L-177.553 9.78989L-49.5315 121.64L-514.038 653.307C-582.203 731.327 -584.892 806.523 -509.924 872.021C-473.45 903.888 -430.307 920.221 -385.24 923.856C-361.189 742.967 -253.221 558.445 -135.476 423.676C-17.7306 288.907 126.703 258.35 239.163 356.604C351.624 454.859 347.532 597.341 224.491 738.172C110.29 868.884 -58.8349 994.317 -228.895 1045.84C-217.587 1100.38 -189.059 1152.35 -139.414 1195.73C-89.7692 1239.1 -31.8137 1264.49 25.6426 1268.23C58.9361 1097.21 122.751 935.176 264.404 773.043C387.445 632.212 528.841 609.691 641.302 707.945C753.763 806.2 747.412 946.708 624.371 1087.54C509.28 1219.27 342.374 1348.83 168.258 1396.81L152.325 1475.85C131.145 1585.97 112.878 1648.67 72.1513 1695.28C11.9649 1764.17 -77.0801 1765.39 -166.571 1739.02L-204.962 1726.72ZM-221.769 888.739C-115.364 840.565 -2.44338 747.135 100.235 629.612C170.165 549.571 176.288 502.185 139.814 470.318C103.34 438.451 57.2045 450.88 -12.7256 530.92C-108.342 640.361 -190.845 767.466 -221.769 888.739ZM190.62 1234.43C295.259 1188.27 402.214 1097.11 503.127 981.61C573.057 901.57 577.409 852.636 541.953 821.659C506.497 790.681 459.343 802.22 389.413 882.261C279.646 1007.9 219.387 1123.81 190.62 1234.43Z" fill="#EDEDEF"/>
</g>
</g>
<defs>
<clipPath id="clip0_165_11749">
<rect width="1313" height="1324" fill="white" transform="translate(-169) rotate(41.1431)"/>
</clipPath>
</defs>
</svg>
