<svg width="1456" height="2085" viewBox="0 0 1456 2085" fill="none" xmlns="http://www.w3.org/2000/svg">
<g clip-path="url(#clip0_165_11747)">
<path d="M615.158 1654.83C561.354 1571.38 535.342 1485.54 529.731 1400.55C455.531 1361.76 389.899 1305.48 338.785 1226.2C210.535 1027.3 229.242 811.768 407.082 641.972L1057.06 20.5925L1180.62 212.212L602.46 762.294C456.284 901.841 452.079 1027.31 520.232 1133.01C531.891 1151.09 544.223 1166.5 559.171 1180.48C618.311 1000.59 752.558 845.18 885.993 759.142C1090.34 627.383 1298.87 657.645 1409.18 828.724C1519.49 999.803 1466.87 1193.7 1252.81 1331.72C1117.98 1418.66 927.571 1474.65 747.976 1458.53C756.677 1490.33 770.192 1520.67 789.018 1549.86C902.018 1725.11 1084.34 1704.5 1238.64 1605.01C1381.81 1512.69 1479.67 1356.58 1579.6 1148.38L1629.74 1043.46L1828.71 1147.2L1750.08 1300.22C1635.66 1525.62 1507.99 1687.15 1346.75 1791.12C1056.24 1978.44 776.583 1905.18 615.158 1654.83ZM1003.34 939.294C893.545 1010.09 788.945 1128.67 750.71 1261.63C873.083 1271.34 1016.52 1228.26 1138.82 1149.4C1241.7 1083.07 1281.81 1000.25 1240.55 936.265C1199.3 872.28 1109 871.17 1003.34 939.294Z" fill="#EDEDEF"/>
</g>
<defs>
<clipPath id="clip0_165_11747">
<rect width="1645" height="1295" fill="white" transform="translate(1089) rotate(57.1863)"/>
</clipPath>
</defs>
</svg>
