<svg width="22" height="18" viewBox="0 0 22 18" fill="none" xmlns="http://www.w3.org/2000/svg">
<g clip-path="url(#clip0_165_11789)">
<path d="M14.8396 2.30142L12.8248 4.15166L16.9017 8.59284C15.5508 8.74083 14.1996 8.81482 12.8014 8.81482C12.1378 8.81482 11.5216 8.79041 10.9526 8.74083C11.1896 7.90172 11.308 7.0382 11.308 6.12547C11.308 2.5726 9.19861 0.5 6.33083 0.5C3.67629 0.5 2.06451 2.32583 2.06451 4.7684C2.06451 7.21098 3.53413 9.28396 6.63897 10.5175C5.78563 11.233 4.60071 11.6525 3.10728 11.6525C2.3961 11.6525 1.59039 11.6278 0.760874 11.455L0.499998 14.1199C1.51931 14.3419 2.37229 14.3419 3.24944 14.3419C6.16485 14.3419 8.34528 13.1576 9.69655 11.3318C10.6682 11.4798 11.7348 11.5538 12.8963 11.5538C14.2234 11.5538 15.5508 11.4306 16.8306 11.2826L12.8248 15.625L14.8396 17.5L21.5 9.90071L14.8396 2.30142ZM8.15585 8.19846C5.88053 7.45813 4.90885 6.15065 4.90885 4.81799C4.90885 3.73248 5.52512 3.09094 6.52062 3.09094C7.6821 3.09094 8.46435 4.22565 8.46435 6.05186C8.46435 6.8166 8.36946 7.53213 8.15622 8.19846H8.15585Z" fill="#D64E34"/>
</g>
<defs>
<clipPath id="clip0_165_11789">
<rect width="21" height="17" fill="white" transform="matrix(-1 0 0 1 21.5 0.5)"/>
</clipPath>
</defs>
</svg>
