<svg width="59" height="39" viewBox="0 0 59 39" fill="none" xmlns="http://www.w3.org/2000/svg">
<g clip-path="url(#clip0_281_9444)">
<path d="M53 10C52.3374 6.99657 50.3987 5 47 5C43.2924 5 41 6.43785 41 9C41 12.0462 44.1155 13.1174 48 14C53.1203 15.1042 59 16.9337 59 24C59 30.2712 54.3725 34 47 34C39.6275 34 34.6342 31.0496 33 25L39 23C39.9269 27.1076 43.203 29 47 29C50.4433 29 53 27.2231 53 24C53 20.7769 49.8398 19.7931 46 19C40.835 17.8511 34 17.286 34 10C34 4.34694 40.2007 0 47 0C53.7993 0 57.5426 3.43636 59 9L53 10Z" fill="white"/>
<path d="M29 27C30.8705 24.8384 32 22.0722 32 20C32 14.8818 28.211 11 23 11H22C16.787 11 14 14.8818 14 20C14 22.0741 14.1276 24.8384 16 27L18 28C17.7782 28.0447 17.2218 28 17 28C10.6742 28 6 23.9707 6 17C6 10.0293 10.5839 6 17 6C18.8096 6 20.5594 6.29243 22 7C23.5407 7.75811 25.0128 8.4449 26 10L30 6C26.999 2.15696 22.6546 0 17 0C7.10991 0 0 7.16204 0 17C0 26.838 7.10991 34 17 34C18.8273 34 20.4848 33.3985 22 33L27 39L31 35L27 31L26 30L28 28L29 27ZM22 25C20.4416 23.2797 20 21.4113 20 20C20 17.8073 20.8077 16 23 16C25.1923 16 27 17.8054 27 20C27 21.4113 26.5604 23.2797 25 25L23 27L22 25Z" fill="white"/>
</g>
<defs>
<clipPath id="clip0_281_9444">
<rect width="59" height="39" fill="white"/>
</clipPath>
</defs>
</svg>
