<svg width="147" height="29" viewBox="0 0 147 29" fill="none" xmlns="http://www.w3.org/2000/svg">
<path d="M34.284 22H30.392L38.428 0.999998H42.572L50.58 22H46.52L44.224 15.7H36.608L34.284 22ZM40.416 5.34L37.84 12.312H42.964L40.416 5.34ZM61.6402 22.28C58.5229 22.28 56.0122 21.2813 54.1082 19.284C52.2042 17.2867 51.2522 14.692 51.2522 11.5C51.2522 8.40133 52.2229 5.83467 54.1642 3.8C56.1242 1.74667 58.6256 0.719999 61.6682 0.719999C64.0389 0.719999 66.0549 1.336 67.7162 2.568C69.3776 3.8 70.4696 5.48933 70.9922 7.636L67.1562 8.7C66.7829 7.244 66.1296 6.14267 65.1962 5.396C64.2816 4.63067 63.1056 4.248 61.6682 4.248C59.7456 4.248 58.1869 4.92933 56.9922 6.292C55.8162 7.65467 55.2282 9.39067 55.2282 11.5C55.2282 13.6467 55.8069 15.392 56.9642 16.736C58.1402 18.08 59.6989 18.752 61.6402 18.752C63.1149 18.752 64.3469 18.3693 65.3362 17.604C66.3442 16.82 67.0162 15.728 67.3522 14.328L71.1882 15.392C70.5536 17.5947 69.4056 19.2933 67.7442 20.488C66.0829 21.6827 64.0482 22.28 61.6402 22.28ZM82.3978 22H78.5618V4.528H72.4298V0.999998H88.5018V4.528H82.3978V22ZM106.575 22H92.4074V0.999998H106.295V4.444H96.2434V9.344H103.187V12.788H96.2434V18.556H106.575V22ZM114.154 22H110.318V0.999998H118.578C120.706 0.999998 122.432 1.62533 123.758 2.876C125.102 4.108 125.774 5.71333 125.774 7.692C125.774 9.652 125.102 11.2573 123.758 12.508C122.414 13.7587 120.687 14.384 118.578 14.384H114.154V22ZM121.966 7.692C121.966 6.684 121.658 5.89067 121.042 5.312C120.426 4.73333 119.586 4.444 118.522 4.444H114.154V10.94H118.522C119.567 10.94 120.398 10.6507 121.014 10.072C121.648 9.47467 121.966 8.68133 121.966 7.692ZM129.768 22H125.876L133.912 0.999998H138.056L146.064 22H142.004L139.708 15.7H132.092L129.768 22ZM135.9 5.34L133.324 12.312H138.448L135.9 5.34Z" fill="black"/>
<g clip-path="url(#clip0_714_30693)">
<path d="M16.6044 3.90786C18.5323 6.77353 19.511 10.6528 19.511 13.4898C19.511 17.3108 17.18 19.6266 13.8992 19.6266C10.6185 19.6266 8.48946 17.3972 8.48946 13.6634C8.48946 10.6818 9.55398 6.77398 11.5687 3.90831C11.1657 3.7056 10.7052 3.61879 10.2448 3.61879C8.37424 3.61879 6.82039 4.66097 6.27368 7.90298L3.88529 22.0004H0L2.4173 7.67118C3.30922 2.4607 6.12955 0 10.2159 0C11.6835 0 12.9784 0.49223 14.1008 1.30262C15.2805 0.49223 16.6044 0 18.1008 0C22.0431 0 24.7482 2.22935 25.6116 7.61301L28 22H23.9999L21.6979 7.93162C21.2085 4.68916 19.7699 3.61834 18.0719 3.61834C17.5541 3.61834 17.0648 3.73424 16.6044 3.90786ZM14.0145 16.0946C15.079 16.0946 15.7698 15.2842 15.7698 13.6052C15.7698 11.1159 15.1657 8.33659 14.0145 6.36856C12.8347 8.33659 12.2302 11.0868 12.2302 13.6052C12.2302 15.2842 12.9495 16.0946 14.0145 16.0946Z" fill="black"/>
</g>
<defs>
<clipPath id="clip0_714_30693">
<rect width="28" height="22" fill="white"/>
</clipPath>
</defs>
</svg>
