<svg width="724" height="765" viewBox="0 0 724 765" fill="none" xmlns="http://www.w3.org/2000/svg">
<path d="M522 764C413.658 764 340.629 708.629 278 654L277 653C228.292 732.478 169.497 765 87 765C-24.3225 764.985 -101 693.314 -101 590C-101 486.686 -24.2842 401 93 401C141.708 401 187.27 421.188 231 450L328 190C374.711 64.8165 428.698 0 544 0C559.903 0 576.098 1.02226 593 5L576 125C572.02 124.017 564.941 122 555 122C512.253 122 484.901 148.313 467 196L335 533C337.981 535.995 341.019 538.005 344 541C403.633 592.664 452.371 638 515 638C560.727 638 591.115 615.646 609 562L723 611C686.231 723.252 613.455 764 522 764ZM96 646C131.786 646 159.158 626.603 187 566C156.192 538.171 127.808 519 97 519C57.2343 519 29 547.233 29 584C29 620.767 55.2355 646 96 646Z" fill="black" fill-opacity="0.1"/>
</svg>
