<svg width="1454" height="2085" viewBox="0 0 1454 2085" fill="none" xmlns="http://www.w3.org/2000/svg">
<g clip-path="url(#clip0_176_68972)">
<path d="M618.542 1656.36C564.468 1573.09 538.176 1487.33 532.288 1402.36C457.963 1363.81 392.148 1307.74 340.776 1228.64C211.881 1030.16 229.887 814.56 407.173 644.187L1055.13 20.6963L1179.31 211.913L602.942 763.872C457.22 903.894 453.424 1029.38 521.919 1134.85C533.637 1152.89 546.02 1168.26 561.013 1182.2C619.568 1002.12 753.308 846.27 886.463 759.798C1090.38 627.375 1299.01 656.959 1409.88 827.678C1520.74 998.398 1468.75 1192.47 1255.14 1331.18C1120.59 1418.56 930.368 1475.17 750.721 1459.63C759.525 1491.4 773.139 1521.69 792.06 1550.83C905.63 1725.71 1087.89 1704.5 1241.86 1604.51C1384.73 1511.73 1482.08 1355.3 1581.33 1146.78L1631.14 1041.7L1830.43 1144.79L1752.31 1298.06C1638.62 1523.83 1511.47 1685.78 1350.57 1790.27C1060.68 1978.53 780.78 1906.18 618.542 1656.36ZM1004.4 939.568C894.831 1010.72 790.617 1129.64 752.815 1262.72C875.219 1272.03 1018.51 1228.49 1140.56 1149.24C1243.22 1082.56 1283.06 999.618 1241.6 935.768C1200.13 871.917 1109.83 871.1 1004.4 939.568Z" fill="#EDEDEF"/>
</g>
<defs>
<clipPath id="clip0_176_68972">
<rect width="1645" height="1295" fill="white" transform="translate(1087) rotate(57)"/>
</clipPath>
</defs>
</svg>
