<svg width="144" height="28" viewBox="0 0 144 28" fill="none" xmlns="http://www.w3.org/2000/svg">
<path d="M12.04 24.28C8.96 24.28 6.42133 23.272 4.424 21.256C2.42667 19.2213 1.428 16.636 1.428 13.5C1.428 10.364 2.41733 7.788 4.396 5.772C6.39333 3.73733 8.94133 2.72 12.04 2.72C15.1387 2.72 17.6773 3.73733 19.656 5.772C21.6533 7.788 22.652 10.364 22.652 13.5C22.652 16.636 21.6533 19.2213 19.656 21.256C17.6587 23.272 15.12 24.28 12.04 24.28ZM12.04 20.752C14.0373 20.752 15.6427 20.0893 16.856 18.764C18.0693 17.4387 18.676 15.684 18.676 13.5C18.676 11.316 18.0693 9.56133 16.856 8.236C15.6427 6.91067 14.0373 6.248 12.04 6.248C10.0427 6.248 8.43733 6.91067 7.224 8.236C6.01067 9.56133 5.404 11.316 5.404 13.5C5.404 15.684 6.01067 17.4387 7.224 18.764C8.43733 20.0893 10.0427 20.752 12.04 20.752Z" fill="black"/>
<path d="M70.3233 14.732H68.0833V24H64.2473V3H68.0833V11.12H70.4633L76.8193 3H81.4393L73.5433 12.8L81.6913 24H77.1273L70.3233 14.732ZM92.7939 24.28C89.7139 24.28 87.1752 23.272 85.1779 21.256C83.1806 19.2213 82.1819 16.636 82.1819 13.5C82.1819 10.364 83.1712 7.788 85.1499 5.772C87.1472 3.73733 89.6952 2.72 92.7939 2.72C95.8926 2.72 98.4312 3.73733 100.41 5.772C102.407 7.788 103.406 10.364 103.406 13.5C103.406 16.636 102.407 19.2213 100.41 21.256C98.4126 23.272 95.8739 24.28 92.7939 24.28ZM92.7939 20.752C94.7912 20.752 96.3966 20.0893 97.6099 18.764C98.8232 17.4387 99.4299 15.684 99.4299 13.5C99.4299 11.316 98.8232 9.56133 97.6099 8.236C96.3966 6.91067 94.7912 6.248 92.7939 6.248C90.7966 6.248 89.1912 6.91067 87.9779 8.236C86.7646 9.56133 86.1579 11.316 86.1579 13.5C86.1579 15.684 86.7646 17.4387 87.9779 18.764C89.1912 20.0893 90.7966 20.752 92.7939 20.752ZM104.272 23.804L104.888 20.556C105.019 20.5933 105.149 20.6307 105.28 20.668C105.429 20.6867 105.569 20.696 105.7 20.696C106.484 20.696 107.063 20.2573 107.436 19.38C107.828 18.484 108.127 16.916 108.332 14.676C108.407 13.8173 108.472 12.8093 108.528 11.652C108.584 10.4947 108.64 9.12267 108.696 7.536L108.836 3H123.368V24H119.532V6.528H112.476L112.392 8.88C112.317 10.8773 112.215 12.6227 112.084 14.116C111.953 15.5907 111.785 16.8787 111.58 17.98C111.169 20.22 110.553 21.8347 109.732 22.824C108.911 23.7947 107.763 24.28 106.288 24.28C105.952 24.28 105.597 24.2333 105.224 24.14C104.869 24.0653 104.552 23.9533 104.272 23.804ZM142.974 24H128.806V3H142.694V6.444H132.642V11.344H139.586V14.788H132.642V20.556H142.974V24Z" fill="black"/>
<g clip-path="url(#clip0_208_53568)">
<path d="M59 20.4V23.7272H57.5164C55.8982 23.7272 54.5227 23.1543 53.4165 22.1998C51.96 23.3179 50.2067 24 48.0489 24C45.8911 24 44.2458 23.3183 42.8431 22.1998C41.5755 23.3179 40.0378 24 38.1769 24C34.2387 24 32 21.6547 32 17.8093V3.27277H35.3987V17.5635C35.3987 19.6635 36.3698 20.8633 38.3658 20.8633C39.3369 20.8633 40.1729 20.5636 40.8742 20.018C38.7973 16.9632 37.9342 12.6545 37.9342 9.0271C37.9342 5.39971 39.7142 3 42.7084 3C45.7026 3 47.5098 5.23655 47.5098 9.0271C47.5098 12.5453 46.6738 16.7182 44.8395 19.7727C45.7297 20.4544 46.8355 20.8633 48.1573 20.8633C49.4791 20.8633 50.5849 20.5088 51.5022 19.8819C49.7217 16.8818 48.9666 12.6819 48.9666 9.0271C48.9666 5.37231 50.8 3 53.7942 3C56.7884 3 58.5413 5.31834 58.5413 9.1363C58.5413 12.5453 57.6782 16.6908 55.6551 19.7179C56.3294 20.1542 57.1658 20.3996 58.1098 20.3996H59V20.4ZM42.8702 17.2912C43.7875 15.1368 44.2191 12.1912 44.2191 9.02752C44.2191 6.87318 43.6795 6.05487 42.7355 6.05487C41.7915 6.05487 41.1982 6.87318 41.1982 9.02752C41.1982 11.9732 41.6835 15.0272 42.8706 17.2912H42.8702ZM53.6595 17.3186C54.7924 15.1912 55.2778 12.273 55.2778 9.02752C55.2778 6.87318 54.7382 6.05487 53.7942 6.05487C52.8502 6.05487 52.2569 6.87318 52.2569 9.02752C52.2569 12.0546 52.6075 15.1364 53.6595 17.3186Z" fill="black"/>
</g>
<defs>
<clipPath id="clip0_208_53568">
<rect width="27" height="21" fill="white" transform="translate(32 3)"/>
</clipPath>
</defs>
</svg>
