<svg width="43" height="32" viewBox="0 0 43 32" fill="none" xmlns="http://www.w3.org/2000/svg">
<g clip-path="url(#clip0_281_2145)">
<g clip-path="url(#clip1_281_2145)">
<g clip-path="url(#clip2_281_2145)">
<path d="M20.8428 21.9502H22.1578C22.1578 21.9502 22.5548 21.9082 22.7578 21.6992C22.9448 21.5072 22.9378 21.1472 22.9378 21.1472C22.9378 21.1472 22.9128 19.4602 23.7318 19.2112C24.5388 18.9662 25.5758 20.8412 26.6748 21.5632C27.5048 22.1082 28.1368 21.9892 28.1368 21.9892L31.0748 21.9492C31.0748 21.9492 32.6118 21.8592 31.8828 20.7042C31.8228 20.6092 31.4578 19.8492 29.6978 18.2872C27.8558 16.6522 28.1028 16.9172 30.3218 14.0892C31.6728 12.3672 32.2138 11.3152 32.0448 10.8652C31.8838 10.4362 30.8888 10.5502 30.8888 10.5502L27.5808 10.5702C27.5808 10.5702 27.3358 10.5382 27.1538 10.6422C26.9758 10.7442 26.8618 10.9822 26.8618 10.9822C26.8618 10.9822 26.3378 12.3142 25.6398 13.4472C24.1688 15.8382 23.5788 15.9642 23.3388 15.8162C22.7788 15.4702 22.9188 14.4262 22.9188 13.6842C22.9188 11.3662 23.2868 10.4002 22.2028 10.1492C21.8428 10.0662 21.5788 10.0122 20.6588 10.0032C19.4788 9.99016 18.4788 10.0062 17.9128 10.2702C17.5368 10.4462 17.2468 10.8392 17.4228 10.8612C17.6428 10.8892 18.1368 10.9892 18.3998 11.3312C18.7388 11.7712 18.7268 12.7612 18.7268 12.7612C18.7268 12.7612 18.9218 15.4912 18.2718 15.8292C17.8258 16.0612 17.2138 15.5872 15.9018 13.4172C15.2278 12.3062 14.7198 11.0772 14.7198 11.0772C14.7198 11.0772 14.6218 10.8482 14.4488 10.7262C14.2358 10.5772 13.9388 10.5302 13.9388 10.5302L10.7958 10.5502C10.7958 10.5502 10.3238 10.5612 10.1508 10.7572C9.9968 10.9322 10.1388 11.2932 10.1388 11.2932C10.1388 11.2932 12.5988 16.7982 15.3858 19.5722C17.9418 22.1162 20.8428 21.9502 20.8428 21.9502Z" fill="white"/>
</g>
</g>
</g>
<defs>
<clipPath id="clip0_281_2145">
<rect width="22" height="12" fill="white" transform="translate(10.0791 10)"/>
</clipPath>
<clipPath id="clip1_281_2145">
<rect width="22" height="12" fill="white" transform="translate(10.0791 10)"/>
</clipPath>
<clipPath id="clip2_281_2145">
<rect width="22" height="12" fill="white" transform="translate(10.0791 10)"/>
</clipPath>
</defs>
</svg>
