<svg width="19" height="22" viewBox="0 0 19 22" fill="none" xmlns="http://www.w3.org/2000/svg">
<g clip-path="url(#clip0_367_23100)">
<path d="M3.66372 14.2001C3.97632 16.7145 6.21977 18.3712 9.31539 18.3712C12.2121 18.3712 14.5978 16.8855 15.2796 13.5999L19 14.3998C17.6368 19.5713 14.0583 21.9996 9.28685 21.9996C3.77743 22 0 18.8571 0 13.8569C0 12.7426 0.198882 11.5143 0.681378 10.4857C0.482497 9.82847 0.425861 9.11429 0.425861 8.20004C0.425861 3.54307 4.06149 0 9.31539 0C13.8027 0 16.8698 2.37132 17.8923 6.17145L14.2001 7.28578C13.6605 4.97143 11.8429 3.51436 9.17314 3.51436C6.50339 3.51436 4.57208 5.02885 4.23139 7.31449C5.45278 6.40023 6.7589 6.02879 8.094 6.02879C10.9907 6.02879 13.1209 8.05738 13.1209 10.8576C13.1209 13.6577 10.9056 15.772 7.92365 15.772C6.39011 15.772 4.88467 15.3149 3.66372 14.2006V14.2001ZM4.74287 10.7432C5.36761 12.0002 6.47529 12.6004 7.55443 12.6004C8.71874 12.6004 9.51427 11.9149 9.51427 10.8863C9.51427 9.85762 8.71918 9.20042 7.55443 9.20042C6.61709 9.20042 5.50942 9.62884 4.74287 10.7432Z" fill="black"/>
</g>
<defs>
<clipPath id="clip0_367_23100">
<rect width="19" height="22" fill="white"/>
</clipPath>
</defs>
</svg>
