<svg width="28" height="21" viewBox="0 0 28 21" fill="none" xmlns="http://www.w3.org/2000/svg">
<g clip-path="url(#clip0_165_11794)">
<path d="M16.5113 3.73023C18.3705 6.46565 19.3142 10.1685 19.3142 12.8766C19.3142 16.524 17.0664 18.7344 13.9028 18.7344C10.7393 18.7344 8.68626 16.6064 8.68626 13.0423C8.68626 10.1963 9.71276 6.46607 11.6555 3.73066C11.2669 3.53716 10.8229 3.4543 10.3789 3.4543C8.57516 3.4543 7.07681 4.44911 6.54962 7.54375L4.24653 21.0004H0.5L2.83097 7.32249C3.69103 2.34885 6.41063 0 10.3511 0C11.7662 0 13.0149 0.469856 14.0972 1.24341C15.2348 0.469856 16.5113 0 17.9544 0C21.7558 0 24.3643 2.12802 25.1969 7.26696L27.5 21H23.6428L21.4229 7.57109C20.9511 4.47602 19.5638 3.45387 17.9265 3.45387C17.4272 3.45387 16.9553 3.5645 16.5113 3.73023ZM14.0139 15.363C15.0404 15.363 15.7066 14.5895 15.7066 12.9868C15.7066 10.6106 15.1241 7.95765 14.0139 6.07908C12.8763 7.95765 12.2934 10.5829 12.2934 12.9868C12.2934 14.5895 12.987 15.363 14.0139 15.363Z" fill="black"/>
</g>
<defs>
<clipPath id="clip0_165_11794">
<rect width="27" height="21" fill="white" transform="translate(0.5)"/>
</clipPath>
</defs>
</svg>
