<svg width="28" height="21" viewBox="0 0 28 21" fill="none" xmlns="http://www.w3.org/2000/svg">
<g clip-path="url(#clip0_165_11783)">
<path d="M27.5 17.7188V21H26.1829C24.5647 21 23.3379 19.9857 22.2317 19.0312C20.7753 20.1493 18.4627 21 16.3049 21C14.1471 21 12.4392 20.1497 11.0366 19.0312C9.76902 20.1493 8.28773 21 6.42683 21C2.48862 21 0.5 18.9391 0.5 15.0938V0H3.79268V14.4375C3.79268 16.5375 5.08937 17.7188 7.08537 17.7188C8.05647 17.7188 8.35964 17.608 9.06098 17.0625C6.98408 14.0076 6.42683 9.53364 6.42683 5.90625C6.42683 2.27886 8.04238 0 11.0366 0C14.0308 0 16.3049 2.1157 16.3049 5.90625C16.3049 9.42445 14.8464 14.0081 13.0122 17.0625C13.9024 17.7442 15.6416 17.7188 16.9634 17.7188C18.2852 17.7188 19.3388 17.6894 20.2561 17.0625C18.4757 14.0624 17.622 9.56105 17.622 5.90625C17.622 2.25145 19.2375 0 22.2317 0C25.2259 0 26.8415 2.0883 26.8415 5.90625C26.8415 9.31526 26.2304 13.3792 24.2073 16.4062C24.8815 16.8426 25.8975 17.7188 26.8415 17.7188H27.5ZM11.6951 14.4375C12.6124 12.2832 13.0122 9.06989 13.0122 5.90625C13.0122 3.75191 11.9806 3.28125 11.0366 3.28125C10.0926 3.28125 9.71951 3.75191 9.71951 5.90625C9.71951 8.85192 10.508 12.1735 11.6951 14.4375ZM22.2317 14.4375C23.3646 12.3101 23.5488 9.15168 23.5488 5.90625C23.5488 3.75191 23.1757 3.28125 22.2317 3.28125C21.2877 3.28125 20.9146 3.75191 20.9146 5.90625C20.9146 8.93329 21.1797 12.2553 22.2317 14.4375Z" fill="black"/>
</g>
<defs>
<clipPath id="clip0_165_11783">
<rect width="27" height="21" fill="white" transform="translate(0.5)"/>
</clipPath>
</defs>
</svg>
