<svg width="43" height="42" viewBox="0 0 43 42" fill="none" xmlns="http://www.w3.org/2000/svg">
<path d="M30.8977 11.5672C30.7817 11.5973 28.5645 12.4567 25.9778 13.4707C23.3911 14.4848 18.9438 16.2293 16.095 17.3465C13.2462 18.4637 10.8098 19.4305 10.6766 19.4992C10.4188 19.6281 10.1395 19.9031 10.0966 20.075C10.0278 20.3586 10.2255 20.7195 10.5778 20.9473C10.8184 21.0977 15.5966 22.7305 15.7169 22.7004C15.7555 22.6918 18.5958 20.9 22.029 18.7215C25.4579 16.543 28.3196 14.7426 28.3884 14.7168C28.5516 14.6609 28.7751 14.691 28.8309 14.777C28.9513 14.9746 29.1833 14.7555 21.3286 21.8152C18.9009 23.9938 18.7247 24.1613 18.7934 24.2258C18.8321 24.2645 20.6454 25.6567 22.8196 27.3195C25.7716 29.5754 26.8286 30.3617 26.9876 30.4176C27.3013 30.525 27.6708 30.5164 27.9329 30.3918C28.1348 30.2973 28.4485 30.0094 28.5473 29.8203C28.5989 29.7301 32.0794 12.2289 32.0794 12.0828C32.0751 11.9024 31.9204 11.6488 31.7657 11.5758C31.5852 11.4899 31.1985 11.4856 30.8977 11.5672Z" fill="currentColor"/>
</svg>
