<svg width="41" height="34" viewBox="0 0 41 34" fill="none" xmlns="http://www.w3.org/2000/svg">
<g clip-path="url(#clip0_281_2150)">
<g clip-path="url(#clip1_281_2150)">
<g clip-path="url(#clip2_281_2150)">
<path d="M20.3271 10C21.5031 10.006 26.5261 10.051 27.9041 10.428C28.7611 10.658 29.4361 11.334 29.6671 12.191C30.0961 13.755 30.0791 17.016 30.0791 17.016C30.0791 17.016 30.0791 20.261 29.6671 21.826C29.5525 22.248 29.3295 22.6326 29.0202 22.9417C28.7109 23.2508 28.3261 23.4736 27.9041 23.588C26.3391 24 20.0791 24 20.0791 24C20.0791 24 13.8351 24 12.2541 23.572C11.8319 23.4576 11.4471 23.2346 11.1378 22.9253C10.8285 22.616 10.6055 22.2312 10.4911 21.809C10.1341 20.468 10.0861 17.84 10.0801 17.162V16.84C10.0861 16.166 10.1341 13.548 10.4911 12.192C10.6071 11.7686 10.8303 11.3822 11.1391 11.07C11.4479 10.7579 11.8319 10.5306 12.2541 10.41C13.6331 10.05 18.6551 10.007 19.8311 10.002H20.3271V10ZM18.0791 14V20L23.0791 17L18.0791 14Z" fill="currentColor"/>
</g>
</g>
</g>
<defs>
<clipPath id="clip0_281_2150">
<rect width="20" height="14" fill="white" transform="translate(10.0791 10)"/>
</clipPath>
<clipPath id="clip1_281_2150">
<rect width="20" height="14" fill="white" transform="translate(10.0791 10)"/>
</clipPath>
<clipPath id="clip2_281_2150">
<rect width="20" height="14" fill="white" transform="translate(10.0791 10)"/>
</clipPath>
</defs>
</svg>
