<svg xmlns="http://www.w3.org/2000/svg" xmlns:xlink="http://www.w3.org/1999/xlink"><symbol id="arrow-left" viewBox="0 0 62 16">
<path d="M0.292893 7.29289C-0.0976311 7.68342 -0.0976311 8.31658 0.292893 8.70711L6.65685 15.0711C7.04738 15.4616 7.68054 15.4616 8.07107 15.0711C8.46159 14.6805 8.46159 14.0474 8.07107 13.6569L2.41421 8L8.07107 2.34315C8.46159 1.95262 8.46159 1.31946 8.07107 0.928933C7.68054 0.538408 7.04738 0.538408 6.65685 0.928933L0.292893 7.29289ZM61 9.00001C61.5523 9.00001 62 8.55229 62 8.00001C62 7.44772 61.5523 7.00001 61 7.00001L61 9.00001ZM1 9L61 9.00001L61 7.00001L1 7L1 9Z" fill="#EF9B7E"/>
</symbol><symbol id="arrow-right" viewBox="0 0 62 16">
<path d="M1 7C0.447715 7 4.82823e-08 7.44772 0 8C-4.82823e-08 8.55228 0.447715 9 1 9L1 7ZM61.7071 8.70711C62.0976 8.31659 62.0976 7.68342 61.7071 7.2929L55.3431 0.928937C54.9526 0.538413 54.3195 0.538412 53.9289 0.928937C53.5384 1.31946 53.5384 1.95263 53.9289 2.34315L59.5858 8.00001L53.9289 13.6569C53.5384 14.0474 53.5384 14.6805 53.9289 15.0711C54.3195 15.4616 54.9526 15.4616 55.3431 15.0711L61.7071 8.70711ZM1 9L61 9.00001L61 7.00001L1 7L1 9Z" fill="#EF9B7E"/>
</symbol><symbol id="icon-close" viewBox="0 0 20 20"><path d="M.293 18.291a1 1 0 101.414 1.414L10 11.413l8.292 8.292a1 1 0 101.414-1.414l-8.292-8.292 8.292-8.292A1 1 0 1018.291.293L9.999 8.585 1.707.293A1 1 0 10.293 1.707L8.585 10 .293 18.291z"/></symbol></svg>